<?xml version="1.0" encoding="UTF-8" standalone="no"?>
<!-- Created with Inkscape (http://www.inkscape.org/) -->

<svg
   width="48"
   height="48"
   viewBox="0 0 12.7 12.7"
   version="1.1"
   id="svg1"
   inkscape:version="1.4.2 (f4327f4, 2025-05-13)"
   sodipodi:docname="efcfanfinalfinalv2v3betafinal.svg"
   inkscape:export-filename="efcfan.png"
   inkscape:export-xdpi="4096"
   inkscape:export-ydpi="4096"
   xmlns:inkscape="http://www.inkscape.org/namespaces/inkscape"
   xmlns:sodipodi="http://sodipodi.sourceforge.net/DTD/sodipodi-0.dtd"
   xmlns="http://www.w3.org/2000/svg"
   xmlns:svg="http://www.w3.org/2000/svg">
  <sodipodi:namedview
     id="namedview1"
     pagecolor="#ffffff"
     bordercolor="#000000"
     borderopacity="0.25"
     inkscape:showpageshadow="2"
     inkscape:pageopacity="0.0"
     inkscape:pagecheckerboard="0"
     inkscape:deskcolor="#d1d1d1"
     inkscape:document-units="mm"
     inkscape:zoom="11.01807"
     inkscape:cx="23.46146"
     inkscape:cy="23.55222"
     inkscape:window-width="1920"
     inkscape:window-height="991"
     inkscape:window-x="-9"
     inkscape:window-y="-9"
     inkscape:window-maximized="1"
     inkscape:current-layer="layer1" />
  <defs
     id="defs1" />
  <g
     inkscape:label="Layer 1"
     inkscape:groupmode="layer"
     id="layer1">
    <g
       id="g1"
       transform="matrix(0.38216196,0,0,0.38216196,-3.5591571,-1.4328977)">
      <circle
         style="fill:#000000;stroke-width:0.264583"
         id="path2-2"
         cx="31.058943"
         cy="-15.031697"
         r="1.3890625"
         transform="rotate(65.960223)" />
      <path
         style="fill:#000000;stroke-width:0.264583"
         d="M 25.871357,20.6487 C 31.559822,6.82432 19.807903,1.488 31.584975,6.76318 43.362051,12.03836 24.682234,27.88426 25.871357,20.6487 Z"
         id="path1-8-1-3-89"
         sodipodi:nodetypes="csc"
         inkscape:transform-center-x="6.9608763"
         inkscape:transform-center-y="-5.1381497" />
      <path
         style="fill:#000000;stroke-width:0.264583"
         d="M 25.255503,23.47876 C 10.439,25.46453 11.693527,38.31016 10.373478,25.47333 9.053425,12.63648 32.116262,20.89081 25.255503,23.47876 Z"
         id="path1-8-1-3-89-3"
         sodipodi:nodetypes="csc"
         inkscape:transform-center-x="2.2931233"
         inkscape:transform-center-y="7.386099" />
      <path
         style="fill:#000000;stroke-width:0.264583"
         d="m 28.014337,22.59708 c 9.128001,11.83856 19.62537,4.32928 9.16838,11.89091 -10.45699,7.56164 -14.83999,-16.53852 -9.16838,-11.89091 z"
         id="path1-8-1-3-89-4"
         sodipodi:nodetypes="csc"
         inkscape:transform-center-x="-6.4281635"
         inkscape:transform-center-y="-3.7387966" />
    </g>
    <g
       stroke-linecap="round"
       id="Layer_4"
       transform="matrix(0.00623575,0,0,0.00623575,-0.0530758,-0.07426992)">
      <path
         d="M 69,1104 Q 283.5,706.5 964.5,996"
         fill="none"
         stroke="#000000"
         stroke-width="17"
         stroke-opacity="1"
         stroke-linejoin="round"
         id="path1"
         style="fill-rule:nonzero" />
      <path
         d="m 966,994 q 49,-90 82,-208"
         fill="none"
         stroke="#000000"
         stroke-width="17"
         stroke-opacity="1"
         stroke-linejoin="round"
         id="path2"
         style="fill-rule:nonzero" />
      <path
         d="m 1015,96 q 48,162 51,242"
         fill="none"
         stroke="#000000"
         stroke-width="17"
         stroke-opacity="1"
         stroke-linejoin="round"
         id="path3"
         style="fill-rule:nonzero" />
      <path
         d="M 1045.5,786 Q 822,657 430.5,724.5"
         fill="none"
         stroke="#000000"
         stroke-width="17"
         stroke-opacity="1"
         stroke-linejoin="round"
         id="path4"
         style="fill-rule:nonzero" />
      <path
         d="M 1068,336 Q 789,247.5 432,328.5"
         fill="none"
         stroke="#000000"
         stroke-width="17"
         stroke-opacity="1"
         stroke-linejoin="round"
         id="path5"
         style="fill-rule:nonzero" />
      <path
         d="m 429,726 q 4.5,-123 4.5,-121.5"
         fill="none"
         stroke="#000000"
         stroke-width="17"
         stroke-opacity="1"
         stroke-linejoin="round"
         id="path6"
         style="fill-rule:nonzero" />
      <path
         d="m 433.5,600 q 129,-45 261,-9"
         fill="none"
         stroke="#000000"
         stroke-width="17"
         stroke-opacity="1"
         stroke-linejoin="round"
         id="path7"
         style="fill-rule:nonzero" />
      <path
         d="m 694.5,588 q 3,-151.5 4.5,-148.5"
         fill="none"
         stroke="#000000"
         stroke-width="17"
         stroke-opacity="1"
         stroke-linejoin="round"
         id="path8"
         style="fill-rule:nonzero" />
      <path
         d="M 696,441 Q 588,408 435,453"
         fill="none"
         stroke="#000000"
         stroke-width="17"
         stroke-opacity="1"
         stroke-linejoin="round"
         id="path9"
         style="fill-rule:nonzero" />
      <path
         d="M 432,448.5 Q 432,324 432,327"
         fill="none"
         stroke="#000000"
         stroke-width="17"
         stroke-opacity="1"
         stroke-linejoin="round"
         id="path10"
         style="fill-rule:nonzero" />
      <path
         d="M 1015.5,94.5 Q 687,61.5 177,169.5"
         fill="none"
         stroke="#000000"
         stroke-width="17"
         stroke-opacity="1"
         stroke-linejoin="round"
         id="path11"
         style="fill-rule:nonzero" />
      <path
         d="M 174,171 Q 216,546 69,1101"
         fill="none"
         stroke="#000000"
         stroke-width="17"
         stroke-opacity="1"
         stroke-linejoin="round"
         id="path12"
         style="fill-rule:nonzero" />
      <path
         style="fill:#000000;fill-rule:nonzero;stroke-width:0.0320885"
         d="M 1.9431373,24.47889 C 1.9421568,24.467514 2.007203,24.185938 2.0876844,23.853165 3.3692127,18.554321 4.0084525,14.52304 4.2570963,10.172056 4.3068127,9.3020751 4.3073653,6.4552723 4.257962,5.7117541 4.2374403,5.4029022 4.1967792,4.8718151 4.1676042,4.5315606 4.1384291,4.191306 4.1231564,3.9043182 4.1336648,3.8938098 4.1604024,3.8670722 5.4878273,3.5947295 6.6904535,3.3692432 13.136263,2.160687 18.521039,1.729878 22.910331,2.071572 c 0.352499,0.027441 0.644216,0.053201 0.648259,0.057244 0.02303,0.023029 0.426117,1.499869 0.588184,2.1549994 0.296568,1.1988286 0.544662,2.5329169 0.545157,2.9315094 1.4e-4,0.1124779 -0.0094,0.1361184 -0.04902,0.12093 C 24.524302,7.2907418 23.606089,7.0529426 23.147619,6.9490047 22.597813,6.8243601 21.55726,6.6418478 20.953794,6.564209 17.877023,6.1683681 14.295205,6.3559112 10.772635,7.0972931 10.424668,7.170528 10.075144,7.2389077 9.9959152,7.2492472 9.8814061,7.2641912 9.8452106,7.284499 9.8194284,7.3482679 9.7987233,7.3994789 9.7903331,7.9632396 9.7962272,8.9072228 l 0.00923,1.4787342 0.091511,0.109615 0.091511,0.109615 0.4768498,-0.125038 c 2.081223,-0.5457317 3.708601,-0.6406685 5.215238,-0.304243 0.170595,0.03809 0.32583,0.07894 0.344965,0.09076 0.02488,0.01538 0.02579,0.299624 0.0032,0.998299 -0.01739,0.537239 -0.03183,1.226338 -0.0321,1.531332 -3.8e-4,0.430938 -0.01,0.558177 -0.04309,0.57088 -0.02343,0.009 -0.171436,-0.0123 -0.328907,-0.04731 -0.631887,-0.140486 -1.167377,-0.20068 -1.945133,-0.218652 -0.809186,-0.0187 -1.304004,0.01219 -1.951134,0.12181 -0.727472,0.123225 -1.725652,0.399259 -1.8389366,0.508535 -0.052649,0.05079 -0.063494,0.198387 -0.1170823,1.593459 -0.052343,1.36265 -0.053639,1.546051 -0.011401,1.612793 0.055051,0.08699 -0.00352,0.09061 0.8603649,-0.0533 1.739029,-0.289703 3.451187,-0.432859 5.182294,-0.433301 1.13912,-2.9e-4 1.732538,0.03087 2.67939,0.140679 2.041631,0.236781 3.87303,0.766357 5.358781,1.549571 l 0.385062,0.202986 -0.0067,0.113985 c -0.01649,0.28197 -0.751332,2.3349 -1.177103,3.288488 -0.129275,0.289535 -0.555894,1.162272 -0.582327,1.19127 -0.0055,0.006 -0.28182,-0.100833 -0.614061,-0.237465 -3.06403,-1.260062 -6.046411,-2.104117 -8.545978,-2.41863 -1.537323,-0.193438 -3.101637,-0.198927 -4.380081,-0.01537 -1.3161874,0.188975 -2.616182,0.609871 -3.6256675,1.173873 -1.2789409,0.714547 -2.2305454,1.575051 -3.2796007,2.965632 -0.038729,0.05134 -0.071219,0.08403 -0.072199,0.07266 z"
         id="path37"
         transform="matrix(42.430074,0,0,42.430074,8.5115343,11.910343)" />
      <path
         style="fill:#000000;fill-rule:nonzero;stroke-width:0.064177"
         d="m 45.807772,37.671974 c -3.706202,-0.791318 -6.967515,-2.186914 -10.330587,-4.42071 -2.11113,-1.402239 -3.97265,-2.941801 -6.042822,-4.997688 l -1.244348,-1.235761 0.776744,-0.497018 c 3.735305,-2.390126 6.453934,-4.937395 8.100308,-7.589733 0.430414,-0.693404 1.151854,-2.191176 1.371726,-2.847822 0.441748,-1.319273 0.677096,-2.716998 0.677096,-4.021251 0,-0.482614 0.02446,-0.766837 0.06601,-0.766837 0.246825,0 1.698201,0.895595 2.226654,1.373993 0.437342,0.395917 0.928128,1.135926 1.117912,1.68559 0.129322,0.374554 0.150389,0.554369 0.145308,1.240277 -0.005,0.678113 -0.03299,0.891564 -0.180767,1.379806 -0.652327,2.155206 -2.80156,4.980167 -5.988894,7.871828 -0.519088,0.470935 -1.058853,0.961149 -1.199478,1.089365 l -0.255682,0.23312 0.262442,0.537004 c 0.419478,0.858327 0.986409,1.419402 1.771273,1.752973 l 0.418091,0.177691 0.91857,-0.793095 c 2.458957,-2.12307 4.10693,-4.092035 4.802345,-5.737748 0.0902,-0.213446 0.1912,-0.3973 0.224456,-0.408564 0.09226,-0.03125 0.524916,0.724594 0.689401,1.204383 0.189244,0.552005 0.202495,1.518953 0.02871,2.095169 -0.384305,1.274255 -1.438356,2.692226 -3.011238,4.050892 -0.395717,0.341821 -0.798721,0.667634 -0.895566,0.724027 -0.09684,0.05639 -0.176263,0.151614 -0.176486,0.211601 -2.28e-4,0.06131 0.18429,0.240864 0.421392,0.410056 1.543823,1.10165 3.210125,1.769188 5.19825,2.082474 0.491655,0.07747 0.959329,0.152601 1.039276,0.166947 l 0.145357,0.02608 -0.03554,2.196599 c -0.03659,2.261707 -0.07324,3.002942 -0.147969,2.993207 -0.02366,-0.0031 -0.425038,-0.08717 -0.891941,-0.186858 z"
         id="path38"
         transform="matrix(42.430074,0,0,42.430074,8.5115343,11.910343)" />
      <path
         style="fill:#000000;fill-rule:nonzero;stroke-width:0.064177"
         d="M 16.204696,46.715249 C 10.960905,46.448554 7.4169065,45.697529 5.6078622,44.469625 3.3736616,42.953143 3.7033854,40.712615 6.6057949,37.688509 9.8046093,34.35557 13.737282,31.920286 18.442388,30.35877 c 1.358789,-0.45095 3.755787,-1.090427 3.825609,-1.020605 0.0215,0.0215 0.0067,0.420397 -0.03283,0.886429 -0.119423,1.406905 0.0803,2.90386 0.541102,4.055692 0.09186,0.229603 0.167011,0.433639 0.167011,0.453415 0,0.01977 -0.09789,0.05432 -0.217538,0.07676 -0.119646,0.02245 -0.684409,0.185058 -1.255029,0.361361 -3.629254,1.12132 -5.39961,2.405684 -5.392228,3.911973 0.0066,1.349996 1.088633,2.472272 2.796945,2.901014 0.48232,0.12105 0.743301,0.142999 1.6933,0.142407 1.285506,-8.01e-4 1.974162,-0.0932 3.589623,-0.48163 0.580047,-0.139469 1.073772,-0.231434 1.097169,-0.204367 0.02339,0.02707 0.253698,0.338011 0.511782,0.690984 1.375979,1.881878 2.820301,3.226379 4.378211,4.075619 0.256805,0.139988 0.416083,0.254931 0.353952,0.255427 -0.06213,4.96e-4 -0.885201,0.04361 -1.829045,0.09582 -4.013958,0.222008 -9.756692,0.293956 -12.465728,0.156177 z"
         id="path39"
         transform="matrix(42.430074,0,0,42.430074,8.5115343,11.910343)" />
      <path
         style="fill:#000000;fill-rule:nonzero;stroke-width:0.064177"
         d="M 17.680767,47.166108 C 11.640805,46.998016 7.5003136,46.208667 5.4263686,44.829911 4.8319239,44.434724 4.2301861,43.777727 3.987077,43.258444 3.8038368,42.867041 3.7901806,42.787431 3.7883787,42.10012 3.7866934,41.457341 3.8094703,41.295046 3.9648491,40.842688 4.1711763,40.242003 4.5858665,39.499867 5.134161,38.750069 5.5972969,38.116727 7.5149901,36.172478 8.4071886,35.431718 12.204877,32.278637 16.567391,30.190793 21.902845,28.97287 c 0.72457,-0.165398 0.79699,-0.171635 0.891819,-0.07681 0.09483,0.09483 0.0939,0.12283 -0.01144,0.344813 -0.09232,0.194559 -0.120863,0.468398 -0.146568,1.406371 -0.04432,1.617228 0.105172,2.542063 0.596428,3.689809 0.219414,0.51263 0.224062,0.538989 0.113871,0.645801 -0.06318,0.06125 -0.453971,0.201615 -0.868416,0.31193 -2.473191,0.658301 -4.40328,1.538533 -5.282682,2.409207 -0.518535,0.513389 -0.683354,0.81446 -0.720231,1.315628 -0.03347,0.454898 0.143746,0.935475 0.522241,1.416212 0.788624,1.001651 2.365341,1.466941 4.35507,1.285182 1.020613,-0.09323 1.987554,-0.264363 2.981892,-0.527741 1.171626,-0.310339 1.020524,-0.342839 1.478238,0.317944 1.143023,1.650137 2.479282,3.021935 3.815426,3.916902 0.473511,0.317165 1.315782,0.756465 1.721628,0.897943 0.234678,0.08181 0.309952,0.241053 0.176857,0.374148 -0.07557,0.07557 -0.416157,0.117395 -1.500891,0.184326 -2.262769,0.139617 -4.133406,0.219758 -6.665658,0.285569 -2.587089,0.06724 -3.1338,0.06685 -5.679665,-0.004 z"
         id="path40"
         transform="matrix(42.430074,0,0,42.430074,8.5115343,11.910343)" />
      <path
         style="fill:#000000;fill-rule:nonzero;stroke-width:0.064177"
         d="m 45.854475,38.091937 c -5.40389,-1.142869 -10.0258,-3.562331 -14.791872,-7.7432 -0.949594,-0.832998 -3.370722,-3.242572 -3.36924,-3.353162 0.0018,-0.135418 0.09192,-0.206084 0.932916,-0.731683 2.247722,-1.404758 4.503033,-3.211785 5.918752,-4.742296 2.915929,-3.152361 4.268322,-6.37071 4.175414,-9.936417 -0.01956,-0.750743 -0.01066,-0.835234 0.09002,-0.854939 0.156102,-0.03055 1.454245,0.609872 2.065615,1.019045 0.614259,0.411107 1.33794,1.130563 1.633306,1.623769 0.389575,0.650516 0.535606,1.147501 0.569986,1.939813 0.03808,0.877648 -0.07899,1.523361 -0.440952,2.432077 -0.489279,1.228347 -1.383698,2.616219 -2.655008,4.119781 -0.746183,0.882502 -2.713818,2.865967 -3.707358,3.737185 -0.379447,0.33273 -0.689903,0.646364 -0.689903,0.696964 0,0.188074 0.412611,0.857215 0.715116,1.159719 0.171977,0.171978 0.486776,0.405477 0.699552,0.518884 l 0.386866,0.206198 0.55926,-0.469362 c 2.581858,-2.166835 4.29221,-4.221985 4.998722,-6.006439 0.217315,-0.548877 0.248412,-0.593637 0.412438,-0.593637 0.131232,0 0.23496,0.07099 0.398561,0.272752 0.819531,1.010715 1.131618,2.353197 0.827043,3.55763 -0.388821,1.537579 -1.55653,3.062765 -3.760549,4.911787 l -0.185949,0.155998 0.458189,0.304603 c 1.625777,1.080815 3.155704,1.590403 5.801783,1.932459 0.194523,0.02515 0.323182,0.07858 0.355866,0.147788 0.02816,0.05962 0.03144,0.758195 0.0073,1.552385 -0.02414,0.794191 -0.0471,2.083466 -0.05102,2.865055 -0.0062,1.232347 -0.02062,1.426246 -0.108649,1.460027 -0.137604,0.0528 -0.120167,0.05536 -1.246203,-0.182784 z"
         id="path41"
         transform="matrix(42.430074,0,0,42.430074,8.5115343,11.910343)" />
      <path
         style="fill:#000000;fill-rule:nonzero;stroke-width:0.064177"
         d="M 1.2270532,25.828145 C 1.2060812,25.773493 1.3603879,25.044282 1.5699569,24.207675 2.6869841,19.748469 3.3578874,15.926282 3.73509,11.872747 3.8786242,10.330285 3.8961283,5.7061678 3.7629909,4.5020914 3.6853526,3.7999419 3.6865195,3.698421 3.7732245,3.6117159 3.9554319,3.4295086 8.7559688,2.5406765 11.648128,2.1536567 15.450691,1.6448095 19.062214,1.4495789 21.852273,1.6020442 c 1.695561,0.092656 1.990186,0.1297163 2.059702,0.2590891 0.07736,0.1439654 0.674161,2.4278107 0.855292,3.2730277 0.256497,1.1969035 0.436674,2.5685894 0.35096,2.6718683 -0.08407,0.1012954 -0.260479,0.1151307 -0.349109,0.027379 -0.08132,-0.080515 -1.62455,-0.4791531 -2.467606,-0.6374184 -3.053747,-0.573274 -6.487755,-0.554532 -10.10788,0.055166 -0.600055,0.1010608 -1.300386,0.2315479 -1.556292,0.2899713 l -0.465284,0.1062246 v 1.2531737 c 0,1.1673055 0.0077,1.2501895 0.11231,1.2096225 0.201908,-0.07829 1.125608,-0.2846129 1.780912,-0.3977852 1.002227,-0.1730873 2.807162,-0.1455964 3.690178,0.056205 l 0.673859,0.1540017 -0.0223,1.8896105 c -0.01629,1.380646 -0.04355,1.911925 -0.101182,1.972457 -0.06426,0.06749 -0.2326,0.05083 -0.908267,-0.08992 -0.705521,-0.14696 -0.992319,-0.17324 -1.920393,-0.17597 -1.151438,-0.0034 -1.869365,0.08819 -2.775656,0.354045 -0.445111,0.130572 -0.465581,0.145127 -0.472154,0.335716 -0.0038,0.109574 -0.02544,0.681749 -0.04813,1.2715 -0.04039,1.049577 -0.03854,1.071664 0.08709,1.043408 0.216706,-0.04874 1.945651,-0.27705 2.759611,-0.364418 1.039494,-0.111575 4.463966,-0.109538 5.390869,0.0032 1.577245,0.191849 3.077348,0.551372 4.318045,1.034886 0.790554,0.308088 1.9203,0.87617 1.956115,0.983612 0.113061,0.339183 -1.522578,4.549053 -1.984424,5.107587 l -0.126086,0.152482 -1.215435,-0.485457 c -3.794505,-1.515564 -6.977416,-2.292695 -9.815155,-2.396443 -4.4357691,-0.162171 -7.5924586,1.409007 -9.6580284,4.807087 -0.2656568,0.437033 -0.3731981,0.561549 -0.4849973,0.561549 -0.079009,0 -0.160811,-0.04472 -0.1817831,-0.09937 z"
         id="path42"
         transform="matrix(42.430074,0,0,42.430074,8.5115343,11.910343)" />
    </g>
    <g
       stroke-linecap="round"
       id="Layer_2"
       transform="matrix(0.00623575,0,0,0.00623575,0.11501929,-0.05025634)">
      <path
         d="M 1166,1152 Q 1664,852 1632,472"
         fill="none"
         stroke="#000000"
         stroke-width="17"
         stroke-opacity="1"
         stroke-linejoin="round"
         id="path13" />
      <path
         d="m 1630,472 q 408,164 -152,648"
         fill="none"
         stroke="#000000"
         stroke-width="17"
         stroke-opacity="1"
         stroke-linejoin="round"
         id="path14" />
      <path
         d="m 1480,1122 q 24,70 92,92"
         fill="none"
         stroke="#000000"
         stroke-width="17"
         stroke-opacity="1"
         stroke-linejoin="round"
         id="path15" />
      <path
         d="m 1572,1212 q 206,-166 248,-300"
         fill="none"
         stroke="#000000"
         stroke-width="17"
         stroke-opacity="1"
         stroke-linejoin="round"
         id="path16" />
      <path
         d="m 1824,912 q 136,160 -134,370"
         fill="none"
         stroke="#000000"
         stroke-width="17"
         stroke-opacity="1"
         stroke-linejoin="round"
         id="path17" />
      <path
         d="m 1168,1154 q 370,400 808,470"
         fill="none"
         stroke="#000000"
         stroke-width="17"
         stroke-opacity="1"
         stroke-linejoin="round"
         id="path18" />
      <path
         d="m 1974,1624 q 4,-240 6,-236"
         fill="none"
         stroke="#000000"
         stroke-width="17"
         stroke-opacity="1"
         stroke-linejoin="round"
         id="path19" />
      <path
         d="m 1978,1386 q -174,-14 -288,-106"
         fill="none"
         stroke="#000000"
         stroke-width="17"
         stroke-opacity="1"
         stroke-linejoin="round"
         id="path20" />
    </g>
    <g
       stroke-linecap="round"
       id="Layer_3"
       transform="matrix(0.00623575,0,0,0.00623575,-0.00504863,-0.02624275)">
      <path
         d="m 962,1236 q -454,94 -722,400"
         fill="none"
         stroke="#000000"
         stroke-width="17"
         stroke-opacity="1"
         stroke-linejoin="round"
         id="path21" />
      <path
         d="m 958,1236 q -24,144 28,246"
         fill="none"
         stroke="#000000"
         stroke-width="17"
         stroke-opacity="1"
         stroke-linejoin="round"
         id="path22" />
      <path
         d="m 984,1484 q -382,98 -268,244"
         fill="none"
         stroke="#000000"
         stroke-width="17"
         stroke-opacity="1"
         stroke-linejoin="round"
         id="path23" />
      <path
         d="m 714,1726 q 86,104 356,26"
         fill="none"
         stroke="#000000"
         stroke-width="17"
         stroke-opacity="1"
         stroke-linejoin="round"
         id="path24" />
      <path
         d="m 1074,1750 q 120,180 258,230"
         fill="none"
         stroke="#000000"
         stroke-width="17"
         stroke-opacity="1"
         stroke-linejoin="round"
         id="path25" />
      <path
         d="M 1331,1981 Q -118,2077 239,1637"
         fill="none"
         stroke="#000000"
         stroke-width="17"
         stroke-opacity="1"
         stroke-linejoin="round"
         id="path26" />
    </g>
  </g>
</svg>
