<?xml version="1.0" encoding="UTF-8" standalone="no"?>
<!-- Created with Inkscape (http://www.inkscape.org/) -->

<svg
   width="48"
   height="48"
   viewBox="0 0 12.7 12.7"
   version="1.1"
   id="svg1"
   inkscape:version="1.4.2 (f4327f4, 2025-05-13)"
   sodipodi:docname="efcfanfinalfinalv2v3betafinalv5.svg"
   inkscape:export-filename="efcfan.png"
   inkscape:export-xdpi="4096"
   inkscape:export-ydpi="4096"
   xmlns:inkscape="http://www.inkscape.org/namespaces/inkscape"
   xmlns:sodipodi="http://sodipodi.sourceforge.net/DTD/sodipodi-0.dtd"
   xmlns="http://www.w3.org/2000/svg"
   xmlns:svg="http://www.w3.org/2000/svg">
  <sodipodi:namedview
     id="namedview1"
     pagecolor="#ffffff"
     bordercolor="#000000"
     borderopacity="0.25"
     inkscape:showpageshadow="2"
     inkscape:pageopacity="0.0"
     inkscape:pagecheckerboard="0"
     inkscape:deskcolor="#d1d1d1"
     inkscape:document-units="mm"
     inkscape:zoom="11.01807"
     inkscape:cx="17.0175"
     inkscape:cy="16.38218"
     inkscape:window-width="1920"
     inkscape:window-height="991"
     inkscape:window-x="-9"
     inkscape:window-y="-9"
     inkscape:window-maximized="1"
     inkscape:current-layer="layer1" />
  <defs
     id="defs1" />
  <g
     inkscape:label="Layer 1"
     inkscape:groupmode="layer"
     id="layer1">
    <g
       id="g1"
       transform="matrix(0.38216196,0,0,0.38216196,-3.5591571,-1.4328977)">
      <circle
         style="fill:#000000;stroke-width:0.264583"
         id="path2-2"
         cx="31.058943"
         cy="-15.031697"
         r="1.3890625"
         transform="rotate(65.960223)" />
      <path
         style="fill:#000000;stroke-width:0.264583"
         d="M 25.871357,20.6487 C 31.559822,6.82432 19.807903,1.488 31.584975,6.76318 43.362051,12.03836 24.682234,27.88426 25.871357,20.6487 Z"
         id="path1-8-1-3-89"
         sodipodi:nodetypes="csc"
         inkscape:transform-center-x="6.9608763"
         inkscape:transform-center-y="-5.1381497" />
      <path
         style="fill:#000000;stroke-width:0.264583"
         d="M 25.255503,23.47876 C 10.439,25.46453 11.693527,38.31016 10.373478,25.47333 9.053425,12.63648 32.116262,20.89081 25.255503,23.47876 Z"
         id="path1-8-1-3-89-3"
         sodipodi:nodetypes="csc"
         inkscape:transform-center-x="2.2931233"
         inkscape:transform-center-y="7.386099" />
      <path
         style="fill:#000000;stroke-width:0.264583"
         d="m 28.014337,22.59708 c 9.128001,11.83856 19.62537,4.32928 9.16838,11.89091 -10.45699,7.56164 -14.83999,-16.53852 -9.16838,-11.89091 z"
         id="path1-8-1-3-89-4"
         sodipodi:nodetypes="csc"
         inkscape:transform-center-x="-6.4281635"
         inkscape:transform-center-y="-3.7387966" />
    </g>
    <g
       stroke-linecap="round"
       id="Layer_4"
       transform="matrix(0.00623575,0,0,0.00623575,-0.30521843,-0.21835142)">
      <path
         d="M 69,1104 Q 283.5,706.5 964.5,996"
         fill="none"
         stroke="#000000"
         stroke-width="17"
         stroke-opacity="1"
         stroke-linejoin="round"
         id="path1"
         style="fill-rule:nonzero" />
      <path
         d="m 966,994 q 49,-90 82,-208"
         fill="none"
         stroke="#000000"
         stroke-width="17"
         stroke-opacity="1"
         stroke-linejoin="round"
         id="path2"
         style="fill-rule:nonzero" />
      <path
         d="m 1015,96 q 48,162 51,242"
         fill="none"
         stroke="#000000"
         stroke-width="17"
         stroke-opacity="1"
         stroke-linejoin="round"
         id="path3"
         style="fill-rule:nonzero" />
      <path
         d="M 1045.5,786 Q 822,657 430.5,724.5"
         fill="none"
         stroke="#000000"
         stroke-width="17"
         stroke-opacity="1"
         stroke-linejoin="round"
         id="path4"
         style="fill-rule:nonzero" />
      <path
         d="M 1068,336 Q 789,247.5 432,328.5"
         fill="none"
         stroke="#000000"
         stroke-width="17"
         stroke-opacity="1"
         stroke-linejoin="round"
         id="path5"
         style="fill-rule:nonzero" />
      <path
         d="m 429,726 q 4.5,-123 4.5,-121.5"
         fill="none"
         stroke="#000000"
         stroke-width="17"
         stroke-opacity="1"
         stroke-linejoin="round"
         id="path6"
         style="fill-rule:nonzero" />
      <path
         d="m 433.5,600 q 129,-45 261,-9"
         fill="none"
         stroke="#000000"
         stroke-width="17"
         stroke-opacity="1"
         stroke-linejoin="round"
         id="path7"
         style="fill-rule:nonzero" />
      <path
         d="m 694.5,588 q 3,-151.5 4.5,-148.5"
         fill="none"
         stroke="#000000"
         stroke-width="17"
         stroke-opacity="1"
         stroke-linejoin="round"
         id="path8"
         style="fill-rule:nonzero" />
      <path
         d="M 696,441 Q 588,408 435,453"
         fill="none"
         stroke="#000000"
         stroke-width="17"
         stroke-opacity="1"
         stroke-linejoin="round"
         id="path9"
         style="fill-rule:nonzero" />
      <path
         d="M 432,448.5 Q 432,324 432,327"
         fill="none"
         stroke="#000000"
         stroke-width="17"
         stroke-opacity="1"
         stroke-linejoin="round"
         id="path10"
         style="fill-rule:nonzero" />
      <path
         d="M 1015.5,94.5 Q 687,61.5 177,169.5"
         fill="none"
         stroke="#000000"
         stroke-width="17"
         stroke-opacity="1"
         stroke-linejoin="round"
         id="path11"
         style="fill-rule:nonzero" />
      <path
         d="M 174,171 Q 216,546 69,1101"
         fill="none"
         stroke="#000000"
         stroke-width="17"
         stroke-opacity="1"
         stroke-linejoin="round"
         id="path12"
         style="fill-rule:nonzero" />
    </g>
    <g
       stroke-linecap="round"
       id="Layer_2"
       transform="matrix(0.00623575,0,0,0.00623575,0.2169003,-0.016296)">
      <path
         d="M 1166,1152 Q 1664,852 1632,472"
         fill="none"
         stroke="#000000"
         stroke-width="17"
         stroke-opacity="1"
         stroke-linejoin="round"
         id="path13" />
      <path
         d="m 1630,472 q 408,164 -152,648"
         fill="none"
         stroke="#000000"
         stroke-width="17"
         stroke-opacity="1"
         stroke-linejoin="round"
         id="path14" />
      <path
         d="m 1480,1122 q 24,70 92,92"
         fill="none"
         stroke="#000000"
         stroke-width="17"
         stroke-opacity="1"
         stroke-linejoin="round"
         id="path15" />
      <path
         d="m 1572,1212 q 206,-166 248,-300"
         fill="none"
         stroke="#000000"
         stroke-width="17"
         stroke-opacity="1"
         stroke-linejoin="round"
         id="path16" />
      <path
         d="m 1824,912 q 136,160 -134,370"
         fill="none"
         stroke="#000000"
         stroke-width="17"
         stroke-opacity="1"
         stroke-linejoin="round"
         id="path17" />
      <path
         d="m 1168,1154 q 370,400 808,470"
         fill="none"
         stroke="#000000"
         stroke-width="17"
         stroke-opacity="1"
         stroke-linejoin="round"
         id="path18" />
      <path
         d="m 1974,1624 q 4,-240 6,-236"
         fill="none"
         stroke="#000000"
         stroke-width="17"
         stroke-opacity="1"
         stroke-linejoin="round"
         id="path19" />
      <path
         d="m 1978,1386 q -174,-14 -288,-106"
         fill="none"
         stroke="#000000"
         stroke-width="17"
         stroke-opacity="1"
         stroke-linejoin="round"
         id="path20" />
    </g>
    <g
       stroke-linecap="round"
       id="Layer_3"
       transform="matrix(0.00623575,0,0,0.00623575,-0.14088997,0.12657876)">
      <path
         d="m 962,1236 q -454,94 -722,400"
         fill="none"
         stroke="#000000"
         stroke-width="17"
         stroke-opacity="1"
         stroke-linejoin="round"
         id="path21" />
      <path
         d="m 958,1236 q -24,144 28,246"
         fill="none"
         stroke="#000000"
         stroke-width="17"
         stroke-opacity="1"
         stroke-linejoin="round"
         id="path22" />
      <path
         d="m 984,1484 q -382,98 -268,244"
         fill="none"
         stroke="#000000"
         stroke-width="17"
         stroke-opacity="1"
         stroke-linejoin="round"
         id="path23" />
      <path
         d="m 714,1726 q 86,104 356,26"
         fill="none"
         stroke="#000000"
         stroke-width="17"
         stroke-opacity="1"
         stroke-linejoin="round"
         id="path24" />
      <path
         d="m 1074,1750 q 120,180 258,230"
         fill="none"
         stroke="#000000"
         stroke-width="17"
         stroke-opacity="1"
         stroke-linejoin="round"
         id="path25" />
      <path
         d="M 1331,1981 Q -118,2077 239,1637"
         fill="none"
         stroke="#000000"
         stroke-width="17"
         stroke-opacity="1"
         stroke-linejoin="round"
         id="path26" />
    </g>
    <path
       style="fill:#000000;fill-rule:nonzero;stroke-width:0.09076"
       d="M 0.98905196,23.814883 C 1.1244324,23.373474 1.7815595,20.440454 2.0747815,18.96884 3.0179077,14.235506 3.3699709,10.567367 3.276903,6.44396 3.2447926,5.021297 3.2090884,3.7366586 3.1975602,3.589208 L 3.1766,3.3211159 4.40186,3.0709226 C 7.6591972,2.4057869 11.611864,1.8320335 14.65774,1.5822199 16.584915,1.4241588 20.355847,1.3736324 21.750532,1.4871841 l 0.875731,0.0713 0.293368,1.0586481 c 0.350354,1.2642868 0.812207,3.479533 0.813317,3.9010141 6.42e-4,0.24434 -0.02914,0.2922211 -0.158038,0.2540499 C 21.087063,6.0354422 17.876732,5.7024857 15.017999,5.8847242 13.25033,5.9974094 11.387708,6.2417128 9.8474601,6.5628973 L 8.8944801,6.76162 v 1.5883001 1.5883 l 0.31766,-0.00908 c 0.174713,-0.005 0.72608,-0.1050561 1.2252599,-0.2223571 0.753724,-0.1771157 1.161497,-0.21399 2.40514,-0.2174931 0.970883,-0.00273 1.633195,0.036796 1.88327,0.1124055 l 0.38573,0.1166239 v 0.7540187 c 0,0.414711 -0.02601,1.120513 -0.05781,1.568451 l -0.05781,0.814433 -0.64558,-0.132703 c -0.989627,-0.203424 -2.993906,-0.176026 -4.012327,0.05485 -0.4540057,0.102922 -0.9696345,0.247367 -1.1458409,0.320992 L 8.871797,13.232222 8.859639,14.171884 c -0.00669,0.516815 -0.036965,1.21 -0.067285,1.540413 -0.035445,0.386262 -0.020495,0.622152 0.041872,0.660697 0.053349,0.03297 0.6605189,-0.02119 1.349267,-0.120368 5.086337,-0.732388 9.381714,-0.32124 12.393058,1.186248 0.386865,0.193666 0.70339,0.404901 0.70339,0.469413 0,0.132892 -0.513624,1.667893 -0.810409,2.42196 -0.393277,0.999237 -0.949631,2.093143 -1.044113,2.052946 C 18.625346,21.191926 15.398135,20.227726 12.823165,19.81308 11.624126,19.62 8.6413192,19.596743 7.6692207,19.77289 5.1129105,20.236115 3.1428945,21.36229 1.5604181,23.265037 0.88874241,24.072649 0.91889619,24.043631 0.98905256,23.814885 Z"
       id="path42"
       transform="scale(0.26458333)" />
    <path
       style="fill:#000000;fill-rule:nonzero;stroke-width:0.09076"
       d="M 0.27816262,25.331558 C 0.25054705,25.286875 0.45000597,24.337299 0.72140469,23.221388 2.4838674,15.974668 3.1837369,9.9863837 2.8616689,4.908676 2.7978123,3.9019146 2.7693827,3.0543841 2.7984921,3.0252746 2.863891,2.9598757 4.5019521,2.623889 6.48934,2.2682357 11.777668,1.3218625 16.143007,0.9240986 20.01258,1.036016 c 1.173073,0.033928 2.312239,0.090388 2.53148,0.1254658 0.377079,0.060332 0.4052,0.085849 0.520383,0.4721982 0.344803,1.1565454 0.869127,3.4422736 1.015513,4.4270073 0.193329,1.3005178 0.157681,1.4020153 -0.413263,1.1766568 C 23.164498,7.0391217 21.478979,6.657016 20.28486,6.4706854 18.977363,6.2666634 14.483297,6.239944 13.11482,6.4280561 11.872127,6.5988777 10.722416,6.7894347 9.9155301,6.9583169 l -0.70339,0.1472205 v 1.2121314 c 0,0.6666722 0.021588,1.2121313 0.047973,1.2121313 0.026385,0 0.5675413,-0.1075277 1.2025699,-0.2389503 1.459125,-0.3019742 3.297179,-0.3282256 4.371186,-0.06243 l 0.675309,0.1671255 -0.02357,1.8596377 c -0.01625,1.281966 -0.05698,1.893994 -0.131143,1.970239 -0.08449,0.08687 -0.234077,0.07795 -0.697121,-0.04157 -0.448217,-0.115693 -0.98118,-0.151413 -2.223226,-0.149 -1.390271,0.0027 -1.740766,0.03259 -2.352406,0.20061 -0.3952985,0.108591 -0.7355178,0.21423 -0.7560422,0.234753 -0.020524,0.02052 -0.060823,0.597957 -0.089553,1.283184 l -0.052236,1.245865 0.3090987,-0.05609 C 11.135879,15.645017 12.201101,15.56905 14.7485,15.568367 c 3.035535,-8.15e-4 4.071763,0.126004 6.014795,0.736117 1.391854,0.437043 2.970445,1.186145 2.970445,1.40959 0,0.681796 -1.811223,5.157446 -2.087135,5.157446 -0.04847,0 -0.592964,-0.201404 -1.20998,-0.447566 C 15.234588,20.348576 11.01111,19.614004 7.6806561,20.205361 4.5837797,20.755243 2.5014929,22.241923 0.73654932,25.16321 0.5872025,25.410405 0.37504757,25.488322 0.27816262,25.331558 Z"
       id="path43"
       transform="scale(0.26458333)" />
    <path
       style="fill:#000000;fill-rule:nonzero;stroke-width:0.09076"
       d="m 45.69766,37.705697 c -4.84169,-1.114193 -9.585643,-3.648889 -13.79552,-7.370954 -1.192901,-1.054676 -3.332669,-3.168625 -3.262873,-3.223503 0.02249,-0.01768 0.530997,-0.351536 1.130013,-0.741894 4.360962,-2.84189 7.304572,-5.993691 8.721866,-9.33873 0.638199,-1.506252 1.034834,-3.440577 1.034834,-5.046719 0,-0.392923 0.03385,-0.548137 0.119552,-0.548137 0.261352,0 1.734435,0.975429 2.246699,1.487693 0.796766,0.796767 1.110824,1.487789 1.157105,2.545985 0.02513,0.574661 -0.0093,1.010476 -0.111754,1.416014 -0.320693,1.268906 -1.376114,3.072671 -2.759096,4.715428 -0.69321,0.823419 -2.958008,3.099553 -4.175929,4.196829 L 35.428834,26.3146 35.7659,26.956037 c 0.393275,0.748403 1.000842,1.337063 1.6648,1.612991 0.357194,0.148443 0.485045,0.166926 0.574029,0.08299 0.06297,-0.0594 0.522899,-0.461028 1.022077,-0.892512 2.056885,-1.777958 3.59444,-3.586388 4.368038,-5.137572 0.230277,-0.461741 0.433683,-0.83953 0.452013,-0.83953 0.09294,0 0.505049,0.778247 0.667552,1.260634 0.464381,1.378495 0.03039,2.812033 -1.356908,4.482013 -0.654357,0.787695 -1.611738,1.704693 -2.383571,2.283031 -0.187192,0.140265 -0.34035,0.28592 -0.34035,0.323679 0,0.118864 1.285032,0.960635 2.0421,1.337695 1.136369,0.565971 2.598014,1.005868 4.01613,1.208696 l 0.74877,0.107094 v 1.609121 c 0,0.885016 -0.02663,2.044314 -0.05917,2.576219 l -0.05917,0.967098 -0.235798,-0.0063 c -0.129688,-0.0035 -0.664639,-0.105027 -1.188778,-0.225644 z"
       id="path44"
       transform="scale(0.26458333)" />
    <path
       style="fill:#000000;fill-rule:nonzero;stroke-width:0.09076"
       d="M 46.9683,38.372424 C 40.852367,37.203925 35.633843,34.42642 30.524993,29.620646 29.194508,28.369091 28.09022,27.21094 28.09022,27.067115 c 0,-0.04866 0.500315,-0.409239 1.11181,-0.801276 1.466842,-0.94041 3.352759,-2.370498 4.436533,-3.364217 2.736206,-2.508845 4.331128,-4.962546 5.093102,-7.835462 0.246374,-0.928918 0.28013,-1.212776 0.306845,-2.580295 0.01651,-0.845105 0.06739,-1.573926 0.113062,-1.6196 0.128609,-0.12861 1.972752,0.857657 2.653329,1.419029 0.669514,0.552247 1.253486,1.35984 1.50139,2.076321 0.261209,0.754934 0.221428,2.098857 -0.08878,2.99921 -0.814703,2.364634 -2.83723,4.979664 -6.31575,8.165963 l -0.945157,0.865757 0.118169,0.285284 c 0.288607,0.696759 1.191775,1.548531 1.641969,1.548531 0.208232,0 1.949938,-1.511848 2.938449,-2.550654 1.34195,-1.410227 2.419736,-3.004893 2.769388,-4.097516 0.22267,-0.69582 0.744305,-0.307529 1.342653,0.999435 0.286629,0.626082 0.376129,1.690616 0.206766,2.459319 -0.310403,1.408843 -1.579929,3.117386 -3.535056,4.757518 -0.220777,0.185208 -0.384145,0.350796 -0.36304,0.367972 1.183006,0.962753 3.59431,1.875421 5.665495,2.144363 0.449262,0.05834 0.84383,0.134101 0.876816,0.168365 0.10703,0.111175 -0.03091,5.903616 -0.141485,5.941254 -0.05501,0.01872 -0.2838,-0.0011 -0.508431,-0.04399 z"
       id="path45"
       transform="scale(0.26458333)" />
    <path
       style="fill:#000000;fill-rule:nonzero;stroke-width:0.09076"
       d="M 15.883,47.320015 C 5.0142458,46.752221 1.433438,44.235078 4.9228061,39.615506 5.2249611,39.215483 6.0788287,38.296271 6.8202895,37.572812 10.007438,34.463045 13.643958,32.320455 18.28814,30.816106 c 0.989762,-0.320605 3.459197,-0.978051 3.50125,-0.93215 0.01082,0.01181 -0.0089,0.409463 -0.04385,0.883684 -0.114123,1.549197 0.08474,3.051557 0.550085,4.155779 0.122584,0.29088 0.135801,0.397968 0.05231,0.423782 -0.06145,0.019 -0.560991,0.16658 -1.110089,0.327958 -4.606742,1.353909 -6.404579,3.037508 -5.396927,5.053998 0.151565,0.30331 0.442631,0.702398 0.646812,0.886864 0.744477,0.672589 2.13419,1.1211 3.497516,1.128773 0.82354,0.0046 2.46247,-0.229892 3.670022,-0.52517 l 1.056023,-0.258226 0.498489,0.688251 c 1.228812,1.69659 2.646038,3.060219 4.069905,3.915989 l 0.728151,0.437631 -0.300796,0.0469 C 28.516966,47.235716 18.144912,47.438179 15.883,47.320015 Z"
       id="path46"
       transform="scale(0.26458333)" />
    <path
       style="fill:#000000;fill-rule:nonzero;stroke-width:0.09076"
       d="M 16.7906,47.735024 C 8.0419324,47.443766 3.5102658,45.842219 3.2479063,42.948872 3.1529817,41.902027 3.6296075,40.63545 4.603136,39.347507 c 0.6109003,-0.808199 2.3272226,-2.53822 3.3959158,-3.423021 3.5928542,-2.974625 8.0027802,-5.110934 12.9185402,-6.258155 1.372593,-0.320331 1.585617,-0.302069 1.351952,0.115895 -0.08573,0.153351 -0.119982,0.650992 -0.120922,1.756874 -0.0014,1.659492 0.100239,2.259121 0.564972,3.332796 0.123612,0.28558 0.203983,0.573348 0.178605,0.639485 -0.02538,0.06614 -0.530519,0.255067 -1.122532,0.419846 -2.142666,0.59638 -3.862991,1.352729 -4.855835,2.13489 -0.659341,0.519429 -1.037802,1.232184 -0.949034,1.787314 0.175211,1.095706 1.085493,1.942897 2.477026,2.305345 0.675028,0.175823 2.44925,0.176176 3.531139,7.03e-4 0.454235,-0.07367 1.279314,-0.250717 1.833509,-0.393429 0.554193,-0.142713 1.042136,-0.235428 1.084317,-0.206034 0.04218,0.0294 0.32736,0.400601 0.633732,0.824904 1.494586,2.069891 3.059336,3.465276 4.801224,4.281553 0.701561,0.328762 0.897565,0.52348 0.66908,0.664691 -0.145659,0.09002 -4.232365,0.306176 -7.669505,0.405655 -3.410312,0.0987 -3.516964,0.09867 -6.53472,-0.0018 z"
       id="path47"
       transform="scale(0.26458333)" />
  </g>
</svg>
